# xmcd
#
# Track frame offsets: 
#        150
#        13196
#        27319
#        44667
#        58712
#        75402
#        84857
#        94999
#        106540
#        119051
#        137477
#        151060
#
# Disc length: 2324 seconds
#
# Revision: 5
# Processed by: cddbd v1.5.2PL0 Copyright (c) Steve Scherf et al.
# Submitted via: ExactAudioCopy v1.0b4
#
DISCID=8d09120c
DTITLE=Commander Cody and His Lost Planet Airmen - Lost in the Ozone
DYEAR=1971
DGENRE=Country Rock,  Jump Blues
TTITLE0=Back to Tennessee
TTITLE1=Wine Do Yer Stuff
TTITLE2=Seeds and Stems (Again)
TTITLE3=Daddy's Gonna Treat You Right
TTITLE4=Family Bible
TTITLE5=My Home in my Hand
TTITLE6=Lost in the Ozone
TTITLE7=Midnight Shift
TTITLE8=Hot rod Lincoln
TTITLE9=What's the Matter Now?
TTITLE10=20 Flight Rock
TTITLE11=Beat Me Daddy Eight to the Bar
EXTD=
EXTT0=
EXTT1=
EXTT2=Well, I'm sittin' alone, Saturday night;\nWatchin' the late late
EXTT2=show\nA bottle of wine, some cigarettes,\nI got no place to go\n
EXTT2=But I saw your other man today\nHe was wearing my brand new shoe
EXTT2=s\nAnd I'm down to seeds and stems again, too (refrain]\nWell, I
EXTT2=saw my old friend Bob today\nFrom up in Bowling Green\nHe had t
EXTT2=he prettiest little gal \nThat I'd ever seen\nBut, I couldn't hi
EXTT2=de my tears at all\n'Cause she looked just like you\n(refrain]\n
EXTT2=Now, everybody tells me\nTheres's other ways to get by\nThey don
EXTT2='t seem to understand\nI'm too far gone to try.\nNow, these lonl
EXTT2=ey memories,\nThey're all I can lose\n(refrain]\nWell, my dog di
EXTT2=ed just yesterday\nAnd left me all alone.\nThe finance company d
EXTT2=ropped by today\nAnd repossessed my home\nBut that's just a drop
EXTT2=in the bucket, gal,\nCompare to losing you\n(refrain]\nGot the 
EXTT2='Down to Seeds and Stems, Again' blues...
EXTT3=
EXTT4=
EXTT5=
EXTT6=
EXTT7=
EXTT8=
EXTT9=
EXTT10=
EXTT11=
PLAYORDER=
